<svg width="100" height="105" viewBox="0 0 100 105" fill="none" xmlns="http://www.w3.org/2000/svg">
<path d="M25.3119 0.091156C21.6505 0.444878 18.924 1.13267 16.4116 2.31174C10.1406 5.25943 6.42077 10.6832 6.42077 16.8537C6.42077 24.0853 11.8544 30.2558 19.333 31.4939C19.7225 31.5528 20.0535 31.6904 20.0535 31.769C20.0535 31.8672 19.4498 33.3411 18.7097 35.0507C17.9892 36.78 17.2101 38.6666 17.0154 39.2561C16.6648 40.3369 16.6648 40.3369 14.9899 41.1623C11.5428 42.8326 10.0237 44.9943 10.4132 47.6275C10.6469 49.2979 12.4581 50.6538 14.4446 50.6538H15.0094L14.4252 51.3809C13.4514 52.6386 11.6986 55.5666 10.7054 57.63C8.17356 62.8769 6.635 68.7133 6.61553 73.0956C6.61553 73.9209 6.53762 74.648 6.44025 74.707C6.18707 74.8642 3.46051 74.1371 2.54517 73.6655C2.11671 73.4296 1.45455 72.9777 1.06504 72.6436L0.383403 72.0344L0.188649 72.565C-0.103482 73.3314 -0.0450556 75.552 0.286026 76.8883C0.441829 77.5367 0.948189 78.8141 1.39612 79.7377C2.44779 81.8797 4.88222 84.4147 6.84923 85.4366C8.15408 86.1047 8.15408 86.1243 8.8552 87.7947C10.6859 92.118 13.4903 95.95 16.9375 98.8191C23.5007 104.321 31.4661 106.267 38.8278 104.184C42.0997 103.26 43.1708 102.356 40.6585 102.651C39.8795 102.749 37.3477 102.828 35.0496 102.808C30.9987 102.789 30.7845 102.769 28.5253 102.179C22.5659 100.588 18.0086 97.2273 14.2694 91.6267C13.5682 90.5852 11.8739 87.382 11.8739 87.1069C11.8739 87.048 12.6918 87.0087 13.6851 87.0087C16.8401 87.0087 19.4693 86.085 22.2737 84.002C23.5202 83.0784 25.5067 80.9364 25.5067 80.5041C25.5067 79.9932 25.8377 80.4451 26.052 81.2508C26.3441 82.3513 27.3958 84.4933 28.389 86.0064C30.5313 89.3078 34.2316 91.6857 38.2241 92.3145C40.0742 92.6289 44.2225 92.4717 45.7805 92.0394C48.7992 91.1944 51.6426 89.5633 53.3565 87.6571C54.3302 86.5763 55.0898 85.3579 54.895 85.1614C54.8366 85.1025 54.0186 85.2007 53.0643 85.3579C48.1955 86.2226 43.8525 84.002 36.8024 77.0848C31.9725 72.3292 30.4534 71.2287 28.2722 70.9339L27.3568 70.7964L27.2984 69.8138C27.24 68.8705 27.3179 68.733 28.389 67.2198C29.7133 65.3726 30.356 63.997 30.5118 62.6804C30.5897 61.9337 30.5508 61.6782 30.2781 61.462C29.9665 61.2066 29.8302 61.2852 28.8564 62.3463C27.2205 64.1346 24.9613 66.9054 24.5913 67.6129C24.3771 68.0255 24.2602 68.6937 24.2407 69.5583C24.2407 70.5213 24.1628 70.8946 23.9876 70.8946C23.5202 70.8946 21.3389 71.72 19.2356 72.6829C16.4311 73.9602 14.0162 74.6284 11.5428 74.7659L9.53683 74.8838V73.3314C9.55631 66.9447 12.6334 57.0994 16.3532 51.5381C17.288 50.1429 17.3075 50.1232 18.4371 49.9071C21.8453 49.2586 22.8775 49.18 28.3306 49.1996C34.1342 49.1996 36.1207 49.3765 41.1843 50.3787C51.1168 52.3242 60.835 56.7261 66.7945 61.9337C69.9105 64.6652 72.1502 67.888 72.3839 69.971C72.5202 71.1894 71.8775 72.6632 71.2154 72.6632C70.339 72.6632 69.4821 72.9187 69.3847 73.1938C69.1899 73.6851 69.7742 74.0192 71.3712 74.3532C73.2213 74.7266 74.0393 75.1196 75.0326 76.1022C76.3374 77.3795 76.6295 78.1852 76.6295 80.4255C76.6295 82.2334 76.5711 82.5085 76.0063 83.7269C74.9157 86.0457 72.7734 87.9126 70.0663 88.8952C68.2162 89.5633 65.8596 89.6026 62.6657 89.0524C62.0814 88.9541 61.9256 88.9934 61.9256 89.2096C61.9256 89.524 62.7825 90.3887 63.4447 90.7424L63.9121 90.9782L63.4447 91.4695C62.8215 92.1769 59.7249 94.7512 58.2642 95.8124C57.5826 96.3037 56.1414 97.188 55.0508 97.7972C53.9797 98.4064 53.0643 99.0156 53.0059 99.1531C52.889 99.5462 54.9729 99.4479 56.3167 98.9763C59.1406 98.033 62.1593 96.1072 64.7495 93.6115L66.5023 91.9215H68.0409C71.1764 91.9215 74.1367 90.6245 76.5516 88.2074C78.8692 85.8689 79.7651 83.4911 79.6093 80.1307C79.5314 78.5979 79.4145 78.0673 78.9861 77.2027C78.2655 75.7878 76.9606 74.4122 75.7726 73.8227C75.0715 73.4886 74.8183 73.2724 74.9157 73.0563C75.4221 71.7593 75.5389 71.2483 75.5584 70.2658C75.5584 69.3029 75.6947 68.8705 76.5127 67.3181C78.8303 62.9359 80.4467 57.3549 81.1283 51.3809C81.2452 50.3394 81.2842 50.2412 81.6737 50.3394C82.8032 50.6145 84.5755 50.6735 85.9582 50.477C93.4368 49.4158 99.1236 43.4025 99.9026 35.7582C100.487 30.1379 98.4225 24.6945 94.2353 20.6857C92.5604 19.0743 91.3724 18.2489 89.2885 17.1877C85.744 15.3995 82.3942 14.7313 78.207 14.9672C76.9022 15.0261 75.6752 15.144 75.4415 15.203C75.1105 15.3012 75.0131 15.1833 74.7989 14.4562C74.1367 12.2356 72.1697 9.13073 70.0858 7.00839C64.5158 1.28988 56.1414 -0.518036 46.8322 1.93837C45.9753 2.15453 44.6315 2.60651 43.833 2.90128C43.015 3.23535 42.2944 3.41222 42.1776 3.31396C41.6128 2.88163 38.672 1.84012 36.296 1.21127C32.4399 0.228714 28.2722 -0.203613 25.3119 0.091156ZM34.5627 2.90128C36.8608 3.29431 40.3079 4.21792 40.3079 4.45374C40.3079 4.51269 39.7626 4.92536 39.1199 5.33804C36.8997 6.77258 34.9912 8.60014 35.3222 8.93422C35.3807 8.99317 35.9844 8.71806 36.666 8.34468C42.8982 4.80746 47.9033 3.31396 53.3565 3.29431C59.8418 3.29431 65.0222 5.397 69.151 9.72027C70.6701 11.3317 72.6566 14.0632 73.1824 15.3209C73.3966 15.8318 73.3577 15.8908 72.7734 16.1855C71.8191 16.6768 70.6895 17.6397 70.6895 17.9541C70.6895 18.3079 70.6701 18.3079 72.9292 17.6987C74.6625 17.2271 75.2078 17.1681 77.9928 17.1681C80.7194 17.1877 81.3426 17.2467 82.9785 17.679C87.9253 19.0153 91.9956 22.3364 94.1963 26.7776C95.4817 29.3912 95.7154 30.4327 95.7154 33.7538C95.7154 36.6621 95.6959 36.8783 95.1117 38.4897C92.463 45.9375 84.4976 49.6909 78.0123 46.5271C76.8243 45.9572 74.9741 44.503 74.9741 44.1493C74.9741 44.051 75.5973 43.9724 76.3569 43.9724C77.1164 43.9724 78.2849 43.8348 78.9471 43.658C80.2325 43.3239 81.8684 42.4789 81.7126 42.2234C81.6542 42.1448 81.0115 42.1841 80.2909 42.3217C78.5186 42.6754 77.4086 42.6558 75.5973 42.2824C73.9419 41.9483 71.6244 40.8086 70.3974 39.7474L69.6379 39.0792L70.2027 38.9613C71.6049 38.6862 73.0071 38.1949 74.0977 37.6054C75.3442 36.9569 77.7007 34.8542 77.7007 34.4219C77.7007 34.0485 77.7007 34.0485 75.8895 35.0114C71.0791 37.6251 66.2492 37.4875 60.3871 34.5791C58.5174 33.6555 55.8883 31.9655 55.8883 31.6904C55.8883 31.5725 56.3362 31.2384 56.862 30.924C57.9526 30.2558 59.6665 28.5855 59.5691 28.271C59.5107 28.1531 59.1017 28.271 58.5174 28.5855C56.6867 29.5091 53.6486 30.6489 51.9932 31.0026C47.806 31.9065 45.4494 31.9458 42.2555 31.1794C39.6263 30.5309 37.6009 29.4305 35.8286 27.6815C34.3095 26.1684 32.732 23.7906 32.2841 22.2971C31.7193 20.3909 31.135 21.3342 31.5245 23.5547C31.8167 25.1072 32.8294 27.3671 33.8226 28.6444C37.8346 33.7931 45.2936 35.4831 52.6359 32.9481L54.3692 32.3389L55.8493 33.8127C58.868 36.7604 62.8799 38.6862 66.6192 39.0006C68.0604 39.1185 68.0993 39.1382 68.4499 39.767C68.9952 40.8086 70.709 42.3217 72.1112 43.0095C73.2992 43.599 73.4356 43.7562 74.0198 44.896C74.7404 46.3109 76.3179 47.9223 77.7591 48.6887C78.2655 48.9638 78.6745 49.3175 78.6745 49.4944C78.6745 50.1429 77.8565 54.2107 77.3112 56.2544C76.5127 59.32 74.7404 64.3704 74.1951 65.1958C74.0198 65.4512 73.9614 65.4512 73.7861 65.1368C73.1629 64.0756 71.0596 61.7175 69.4821 60.3026C58.3032 50.3198 35.0106 44.3458 20.0535 47.6275C15.2431 48.6887 14.8926 48.7084 13.8798 47.8241C12.7697 46.8611 13.393 45.0336 15.2431 43.8348C18.3202 41.8501 25.5456 40.7299 32.2257 41.2016C39.0031 41.6732 45.0989 42.9112 51.7984 45.1515C58.3227 47.3328 64.2237 50.2805 68.8004 53.6408C69.5405 54.1714 70.2611 54.6627 70.4364 54.7216C70.9622 54.9182 70.3779 54.0732 69.151 52.8548C64.5548 48.2564 54.5834 43.3632 44.6899 40.8479C40.678 39.826 33.1215 38.8631 29.1875 38.8631C27.0647 38.8631 23.0333 39.1972 21.1247 39.5116C20.3262 39.6491 19.664 39.7474 19.664 39.7277C19.664 39.7081 20.1509 38.6666 20.7547 37.4285C21.3584 36.1316 22.0206 34.3826 22.2543 33.3804L22.6827 31.6118L23.6565 31.4939C25.3898 31.258 27.61 30.5899 28.5448 29.9807C29.207 29.568 29.5965 29.4501 29.9665 29.5287C30.6092 29.6663 31.6024 29.3322 31.5051 28.9981C31.4661 28.8802 30.9792 28.6248 30.4339 28.4479C27.571 27.5047 25.3508 24.7928 24.825 21.6289C24.5134 19.6441 23.8707 20.9018 24.007 23.2403C24.0655 24.2229 24.2407 25.1465 24.4939 25.736C24.8834 26.64 26.2467 28.2121 26.9673 28.6051C27.7074 28.9981 27.0063 29.1357 24.0849 29.1357C21.3584 29.1357 20.9884 29.0964 19.4109 28.5658C17.2101 27.8387 15.6716 26.8758 14.0356 25.2448C10.9585 22.1595 9.65369 17.738 10.6275 13.7291C11.1922 11.4103 12.3218 9.48445 14.2304 7.59793C15.6911 6.14374 16.2753 5.73106 18.145 4.7878C20.4625 3.60873 22.9748 2.86198 25.6625 2.52791C27.7853 2.25279 31.8362 2.42965 34.5627 2.90128Z" fill="#D53232"/>
<path d="M19.6833 55.5471C18.4369 55.999 17.7553 56.4707 17.1905 57.3353C16.3336 58.593 16.392 60.7153 17.2878 60.8332C17.6384 60.8922 17.7163 60.8136 17.7163 60.4206C17.7163 59.7917 18.4369 58.7306 19.2354 58.1803C21.2803 56.8047 24.1237 57.9445 24.7664 60.4009C25.1754 61.9534 26.0907 61.2656 26.0907 59.3791C26.0907 56.51 22.6825 54.4662 19.6833 55.5471Z" fill="#D53232"/>
<path d="M43.0736 59.2807C41.1455 59.772 39.5291 61.9533 39.8602 63.6433C40.016 64.4883 40.4444 64.5079 40.8729 63.6629C41.6714 62.1105 43.1126 61.3048 44.7485 61.5406C46.5402 61.7764 47.9035 63.3682 47.9035 65.1564C47.9035 66.0997 48.1956 66.2372 48.7994 65.5691C49.0915 65.235 49.1694 64.8617 49.1694 63.6236C49.1694 62.2284 49.111 62.0122 48.5851 61.2458C47.514 59.713 44.9822 58.8091 43.0736 59.2807Z" fill="#D53232"/>
<path d="M43.9502 72.2113C43.9113 72.3095 43.7555 72.7222 43.6191 73.1545C43.4828 73.5869 43.1323 74.2747 42.8206 74.6677C42.509 75.0607 42.2559 75.493 42.2559 75.5913C42.2559 75.9254 43.2102 75.8468 43.8139 75.4734C44.4761 75.0804 44.7877 74.4515 44.7877 73.5279C44.7877 72.5257 44.2423 71.6807 43.9502 72.2113Z" fill="#D53232"/>
<path d="M52.5972 72.3292C52.1688 72.7615 52.5583 73.5279 53.0841 73.3117C53.2399 73.2528 53.3568 73.0169 53.3568 72.7615C53.3568 72.2505 52.9283 71.9951 52.5972 72.3292Z" fill="#D53232"/>
<path d="M47.0659 73.5868C47.027 73.6654 46.9296 73.9995 46.8517 74.3335C46.7738 74.648 46.4038 75.3161 46.0337 75.827C45.2547 76.9078 45.2352 76.9865 45.8195 76.9865C46.3843 76.9865 47.436 76.338 47.7086 75.8074C48.0397 75.1982 47.8839 73.5671 47.4749 73.4885C47.2996 73.4492 47.1244 73.5082 47.0659 73.5868Z" fill="#D53232"/>
<path d="M70.9625 79.0892C70.6704 80.0914 69.9887 81.1525 69.3266 81.5849C68.3528 82.2334 67.1258 82.5478 66.191 82.3906C64.6719 82.1351 65.1783 83.4714 66.8921 84.2771C68.2749 84.9256 70.3588 84.5719 71.5273 83.5107C72.5984 82.5281 72.949 80.5434 72.2479 79.3839C71.8194 78.6961 71.1378 78.5389 70.9625 79.0892Z" fill="#D53232"/>
</svg>
