<svg width="100" height="100" viewBox="0 0 100 100" fill="none" xmlns="http://www.w3.org/2000/svg">
<path d="M52.8953 0.0665234C53.101 0.092366 54.0011 0.182815 54.8883 0.260343C69.2637 1.53955 82.8162 9.52493 91.174 21.6322C96.163 28.8552 99.1975 37.3574 99.9047 46.0535C100.098 48.4698 99.9819 54.0001 99.699 56.0675C98.8632 62.2568 97.436 66.9085 94.7229 72.3484C92.1384 77.5427 89.181 81.5871 84.8735 85.8124C79.2417 91.3298 72.5168 95.3483 64.8791 97.7905C59.9673 99.3539 55.6212 100 50.015 100C44.846 100 40.9629 99.4702 36.3339 98.1393C24.8902 94.8315 15.118 87.7247 8.45743 77.8399C4.50997 71.9866 1.74546 65.0737 0.6268 58.1995C0.0481826 54.6333 -0.0546827 53.0181 0.0224663 48.922C0.073899 45.8984 0.151048 44.9035 0.42107 43.017C2.7484 27.5372 11.8263 14.2541 25.3788 6.50134C32.9265 2.19854 41.6572 -0.0756111 50.3751 0.00191681C51.558 0.0148381 52.6767 0.0536021 52.8953 0.0665234ZM44.9875 1.92719C37.4783 2.61202 29.9434 5.33842 23.3858 9.71875C19.8112 12.1221 15.388 16.1665 12.7906 19.4356C10.8619 21.8648 8.6503 25.3406 7.24876 28.1445C4.76713 33.1322 2.9927 39.3861 2.54267 44.7743C2.3498 47.0743 2.46552 52.9018 2.73554 54.8271C3.95707 63.4714 7.28733 71.2371 12.7778 78.2276C13.9736 79.7394 16.5195 82.5562 16.6995 82.5562C16.7638 82.5562 16.8538 82.4399 16.8924 82.2978C17.0467 81.8197 18.5254 80.0882 19.5155 79.2354C22.2157 76.9096 24.723 75.6562 30.1106 73.9506C33.5951 72.8523 34.2123 72.5939 35.5496 71.7411C36.6683 71.0304 36.8868 70.6557 37.2083 68.9242C37.324 68.2782 37.5426 67.5546 37.684 67.2961C37.9412 66.831 38.7256 66.2754 39.1242 66.2754C39.3942 66.2754 39.3813 66.1203 39.0727 65.3967C38.8541 64.9186 38.597 64.6344 37.7612 64.0141C36.5911 63.1355 34.8552 61.4686 34.5081 60.8872C34.2766 60.4866 34.2766 60.4866 33.0937 60.4866C30.1492 60.4737 27.5004 58.7035 26.4717 56.0804C25.8802 54.5428 25.8931 52.708 26.5103 51.4158C26.8832 50.6147 27.6804 49.7748 28.5033 49.3097C29.0176 49.0254 29.1719 48.8703 29.1076 48.7153C29.0562 48.599 28.9533 48.3406 28.8762 48.1209C28.7991 47.9142 28.6062 47.5394 28.4262 47.281C26.986 45.1619 25.3273 40.0709 24.993 36.6855L24.903 35.8457H23.2829C21.4313 35.8327 20.5441 35.6518 19.0526 34.9282C14.3208 32.6541 12.1091 26.6974 14.0764 21.4513C14.7965 19.526 16.6867 17.1743 18.4997 15.9468C21.0327 14.2541 24.363 13.3626 27.2046 13.6339C27.8218 13.6985 28.4133 13.7502 28.5162 13.7502C28.6062 13.7502 28.7862 13.453 28.9019 13.0395C29.3648 11.5794 30.5092 9.77043 31.795 8.4783C34.4695 5.80359 38.6098 4.40809 42.8916 4.76988C45.6818 5.00247 47.212 5.40303 49.4493 6.51426L50.8122 7.18617L51.3008 6.94066C52.0852 6.56595 54.8368 5.80359 56.1741 5.60977C57.8071 5.35134 60.9445 5.36426 62.4103 5.62269C67.7464 6.55303 71.4367 9.55077 72.6583 13.9053C73.0054 15.1845 73.0312 17.1227 72.7226 18.3373C72.3111 19.8878 71.6682 20.9991 70.4595 22.2137C69.5466 23.1311 69.1351 23.4412 68.1322 23.9322C66.9235 24.5395 65.5734 24.9142 64.6219 24.9271C64.3647 24.9271 64.1462 24.9788 64.1462 25.0305C64.1462 25.1468 65.1877 27.8215 65.8306 29.3979C66.2549 30.4058 66.2806 30.4445 66.9621 30.7417C67.8365 31.1294 68.8394 31.8788 69.238 32.4473C69.4052 32.6929 69.6109 33.2097 69.7009 33.5973C69.8295 34.2563 69.8166 34.3726 69.5595 34.9153C69.2251 35.6131 68.6594 36.0007 67.8365 36.117L67.245 36.2075L67.7593 37.1249C70.0352 41.1563 71.5139 45.7563 71.7968 49.749L71.8868 51.0024L72.6454 50.8215C73.6098 50.5889 74.2784 50.2529 74.8827 49.6715C75.1528 49.426 75.4099 49.2451 75.4485 49.2967C75.6028 49.4389 75.6156 51.2737 75.4614 51.9973C75.3842 52.3979 75.0756 53.199 74.7799 53.7675C74.137 55.0338 72.6711 56.4939 71.5525 56.9849C70.961 57.2434 70.8067 57.3726 70.691 57.7473C70.3952 58.6389 69.1351 61.0293 68.4665 61.9984C67.245 63.7169 65.1234 65.6681 63.5933 66.4692C63.1947 66.6759 62.8603 66.8956 62.8603 66.9473C62.8603 66.999 62.9761 67.1023 63.1304 67.1799C63.2718 67.2703 63.619 67.813 63.889 68.4203L64.3905 69.5057H65.3548C66.3706 69.5057 69.778 69.9062 71.6039 70.2293C77.3001 71.263 81.8261 74.0023 85.0407 78.3439L86.0308 79.6877L86.5065 79.145C88.6153 76.8062 91.3926 72.4905 93.077 68.9501C95.8158 63.1872 97.2817 57.3338 97.5645 51.0928C97.9889 41.7895 95.8287 33.1451 91.0583 25.0176C83.4977 12.135 69.7909 3.30977 55.2097 1.94011C53.5125 1.78506 46.7105 1.77214 44.9875 1.92719ZM38.6227 6.75977C37.2726 7.10864 35.3824 7.96145 34.3409 8.67212C33.2608 9.40864 31.9879 10.6232 31.2035 11.6699C30.5092 12.6002 29.8148 13.789 29.8148 14.0345C29.8148 14.0862 30.1363 14.2671 30.5092 14.435C31.1778 14.7322 31.8593 15.2878 31.7179 15.43C31.6793 15.4687 31.2164 15.4041 30.7021 15.2749C29.2362 14.9131 25.4945 14.9519 24.093 15.3395C21.9071 15.9339 19.824 17.2648 18.4997 18.8929C17.5482 20.0558 16.6352 22.0069 16.3652 23.4412C15.5166 28.1187 18.3968 32.667 22.8586 33.662C25.1473 34.1788 27.9118 33.4423 29.1205 31.9822L29.4677 31.5816L28.0661 31.517C26.8703 31.4524 26.536 31.3878 25.9317 31.0906C25.173 30.7159 24.7487 30.3541 25.0702 30.3541C25.173 30.3541 25.6617 30.4445 26.1503 30.5479C26.6517 30.6513 27.2946 30.7417 27.6032 30.7417C28.4776 30.7417 30.0592 30.367 30.8306 29.9665C31.5764 29.5917 33.0294 28.571 33.0294 28.4159C33.0294 28.3771 32.6565 28.2608 32.1936 28.1704C31.2292 27.9766 29.9949 27.421 29.2877 26.8524C28.7605 26.4389 28.1947 25.7283 28.3104 25.6249C28.349 25.5861 28.7733 25.767 29.2748 26.0125C30.252 26.5035 31.7564 26.9299 32.978 27.0462C34.701 27.2013 37.1826 26.6586 39.0727 25.7024C40.1142 25.1726 41.6444 24.1777 41.6444 24.0356C41.6444 23.971 41.3872 23.7642 41.0786 23.5833C40.4357 23.2086 39.0727 21.9552 39.0727 21.7356C39.0727 21.658 39.8699 21.994 40.8343 22.485C44.4732 24.3328 48.0992 24.7592 51.2237 23.6996C53.8982 22.7951 56.1355 20.5339 57.0099 17.8463C57.1256 17.4845 57.2799 17.2002 57.3442 17.2519C57.5242 17.3552 57.4856 18.4536 57.267 19.2805C56.4827 22.317 53.9753 24.6687 50.6708 25.4698C49.7193 25.6895 49.2821 25.7283 47.752 25.6637C45.8876 25.599 44.666 25.3277 43.1359 24.6687L42.5059 24.3974L42.1458 24.8367C41.1943 25.9996 38.507 27.6019 36.694 28.0929C36.2696 28.2092 35.4467 28.3384 34.8681 28.3771L33.8009 28.4547L33.3894 29.1007C32.9008 29.876 32.0007 30.6125 31.0749 31.0002C30.4835 31.2457 30.3549 31.3749 30.0977 31.9176C29.6863 32.7962 28.709 33.8041 27.7061 34.4243C27.2175 34.7344 26.8703 35.0316 26.8575 35.1608C26.8575 35.6518 27.4104 38.2361 27.8347 39.6316C28.079 40.4456 28.6319 42.022 29.0691 43.1204C29.7891 44.9552 29.8663 45.1102 30.0334 44.8906C32.3222 41.6086 35.331 39.1794 39.7928 37.0086C43.5859 35.1608 48.3435 33.8041 52.7024 33.3131C54.8368 33.0676 58.99 33.1063 60.803 33.3777C62.6418 33.662 64.1719 34.0237 65.4706 34.5018C66.6664 34.9412 66.8978 34.9541 67.4507 34.6181C68.5051 33.985 68.0036 32.667 66.4221 31.9176C62.0246 29.8243 54.5668 29.5917 47.302 31.3361C42.5573 32.4732 37.6198 34.5277 34.2123 36.776C33.4023 37.3058 32.7079 37.7063 32.6694 37.6546C32.5022 37.4867 34.1738 36.0524 35.8839 34.9153C38.4555 33.1839 41.5158 31.7496 45.0518 30.6125C50.928 28.7389 58.0385 28.3513 63.4004 29.6305C63.8118 29.7209 64.1462 29.7597 64.1462 29.708C64.1462 29.6434 63.889 29.049 63.5675 28.3901C63.1947 27.6148 62.8861 26.749 62.7446 26.0255L62.5132 24.8755L61.4974 24.7075C60.533 24.5395 59.0415 23.958 58.6171 23.5704C58.5143 23.467 58.1028 23.3766 57.7171 23.3507C57.1899 23.3249 56.997 23.2603 56.9713 23.1052C56.9456 22.9502 57.0742 22.8727 57.4728 22.808C59.1829 22.5367 60.8416 20.8569 61.3302 18.9316C61.4974 18.2597 61.6517 18.1693 61.7803 18.6732C61.9217 19.2547 61.7417 20.4564 61.4074 21.1283C61.0988 21.7485 60.0444 22.8597 59.7744 22.8597C59.4529 22.8597 59.6972 23.1182 60.1216 23.2344C62.3074 23.803 65.1362 23.2991 67.0135 22.0069C69.8809 20.03 71.1024 16.7092 70.1252 13.5822C69.7137 12.2513 69.0451 11.2564 67.7979 10.0676C64.6991 7.13448 59.1443 6.01033 53.6282 7.22493C52.9981 7.36707 52.3038 7.54797 52.0981 7.62549L51.738 7.76763L52.0595 7.97437C53.3453 8.85302 55.1454 10.5974 55.1454 10.998C55.1454 11.1789 55.0554 11.1272 53.9111 10.2744C52.5738 9.29234 51.1208 8.46538 49.4878 7.76763C46.8648 6.66932 44.9875 6.30752 42.0301 6.37213C40.2428 6.41089 39.7028 6.46258 38.6227 6.75977ZM52.6638 34.6957C45.7718 35.6389 40.2171 37.8097 35.7296 41.3243C32.2708 44.0248 30.2392 46.9192 30.7921 48.3664C30.8435 48.4956 31.1135 48.5861 31.6278 48.6507C32.7465 48.7799 33.0037 49.258 32.0265 49.413C30.2906 49.6715 29.4934 50.0462 28.6962 50.9378C27.5904 52.204 27.4618 53.9872 28.3362 55.7574C29.0819 57.2821 30.6763 58.4967 32.4508 58.9231C33.3766 59.1299 35.4082 59.104 36.1796 58.8585C36.9768 58.6001 37.144 58.6001 37.144 58.8327C37.144 59.0394 36.4882 59.5821 36.0511 59.7372C35.8196 59.8276 35.8839 59.9181 36.5654 60.5512C36.9897 60.9518 37.9155 61.74 38.6227 62.2956C40.8214 64.0658 41.6572 65.2287 42.0944 67.2445L42.3001 68.149L43.4188 68.627C45.1546 69.3894 46.2347 69.7254 49.4621 70.5394C51.108 70.9529 52.6895 71.431 52.9981 71.5989C53.3196 71.7798 53.641 72.1029 53.821 72.413C54.2068 73.1107 54.6183 74.6742 54.7854 76.1343C54.9783 77.7366 54.9783 77.8399 54.8111 77.8141C54.1554 77.6978 50.7608 77.4911 50.5808 77.5686C49.3593 78.0338 55.5698 79.4551 61.896 80.1658C67.7722 80.8248 68.6465 81.0057 69.0837 81.6776C69.5337 82.3882 70.511 87.3242 70.8967 90.8517L70.9738 91.5882L71.5525 91.304L72.1439 91.0197L72.0539 90.1152C71.8096 87.3759 71.4367 85.3989 70.691 82.75C70.3824 81.6776 70.0609 80.8248 69.9066 80.6568C69.2894 79.9849 67.6693 79.636 62.0246 78.9383C59.1443 78.5765 56.3927 78.163 55.544 77.9692C55.274 77.9045 55.2483 77.8399 55.3255 77.3748C55.5312 76.1085 56.5727 74.7388 58.0514 73.8085C60.6487 72.1675 62.3589 70.6298 62.9246 69.4152C63.3875 68.4461 63.1046 67.3091 62.4232 67.3091C62.166 67.3091 62.1403 67.3737 62.1403 68.2394C62.1531 69.4798 61.8574 70.0225 60.4816 71.418C59.2086 72.6973 58.7843 72.8394 59.903 71.5989C60.3401 71.1209 60.7387 70.6298 60.7902 70.5136C60.8288 70.3973 60.8545 69.7512 60.8288 69.0922L60.7902 67.8776L59.6072 68.2006C58.5657 68.472 58.1543 68.5237 56.2384 68.5237C54.2968 68.5237 53.9111 68.4849 52.8181 68.1877C51.4809 67.8259 50.1565 67.2186 50.3365 67.0506C50.4008 66.999 50.9408 67.0248 51.5452 67.1282C53.0496 67.3607 56.5213 67.3607 57.8714 67.1152C59.17 66.8956 60.9316 66.2883 62.0889 65.681C63.9533 64.699 66.0877 62.7737 67.3478 60.9259C67.785 60.2928 68.9037 58.1737 68.9037 57.9799C68.9037 57.9282 68.3122 57.8765 67.5793 57.8765C65.9977 57.8765 65.0977 57.6698 63.7733 56.972C62.6032 56.3518 61.6774 55.5636 60.8802 54.504C60.533 54.0518 60.263 53.7934 60.2373 53.8967C59.17 57.5018 57.1127 59.7113 53.8596 60.745C53.011 61.0035 52.6381 61.0422 50.838 61.0422C49.2693 61.0422 48.5878 60.9905 47.9577 60.8096C45.9518 60.254 44.5632 59.4917 43.3159 58.2641C42.5187 57.463 41.7472 56.3001 41.9272 56.1321C41.9658 56.0934 42.3387 56.145 42.7502 56.2743C43.9203 56.6102 45.2447 56.5456 46.6076 56.0934C47.2505 55.8737 48.1249 55.4861 48.5749 55.2276C49.7064 54.5557 51.6737 53.0439 53.1524 51.713C56.4313 48.7411 57.1385 48.263 58.5143 48.108C59.2086 48.0305 59.2601 48.0046 59.3886 47.5911C59.6072 46.9451 59.4529 46.4928 58.6686 45.4462C57.8328 44.3091 57.4342 43.3271 57.4856 42.526C57.5113 42.2029 57.5885 41.9187 57.6785 41.8928C57.8585 41.8282 60.7387 45.1102 61.0731 45.7434C61.3817 46.3765 61.5102 47.1777 61.3431 47.6299C61.2274 47.9917 61.2274 48.0046 62.0117 48.2372C62.436 48.3535 63.6318 48.8574 64.6605 49.3484C65.6891 49.8265 66.8978 50.3434 67.3607 50.4855C68.5694 50.8602 70.0481 51.0928 70.1895 50.9507C70.3438 50.7956 70.1509 48.3923 69.8552 46.7642C69.5466 45.0327 68.8008 42.3322 68.1193 40.4586C67.5021 38.7659 66.3449 36.2721 66.0106 35.9232C65.5991 35.4968 61.9731 34.7086 59.3243 34.4889C57.6528 34.3468 54.4768 34.4372 52.6638 34.6957ZM38.7641 66.8568C38.5713 67.0377 38.4298 67.3091 38.4298 67.49C38.4298 67.9551 39.2013 68.7692 40.2171 69.3765C42.5059 70.7461 45.0646 71.5214 49.6036 72.2192C50.8251 72.4001 51.4809 72.568 51.918 72.8006C52.5867 73.1753 53.2167 74.0023 53.5125 74.9326C53.8468 75.9534 54.1425 76.6124 54.2582 76.6124C54.4382 76.6124 54.3997 76.0826 54.1168 74.9843C53.7182 73.4467 53.2039 72.4388 52.5738 71.9737C52.008 71.5602 51.7766 71.5085 48.9478 71.0562C45.9647 70.5911 43.4445 69.8287 41.3615 68.7821C40.14 68.1619 39.5871 67.645 39.5871 67.1282C39.5871 66.4304 39.317 66.34 38.7641 66.8568ZM64.7248 71.1984C64.7248 72.1158 64.159 73.0978 63.0018 74.1961C62.2432 74.8939 60.4559 76.3023 59.9287 76.5995C59.813 76.6641 59.7358 76.7545 59.7744 76.7933C59.8772 76.8838 62.1274 75.9276 62.9504 75.4366C64.6476 74.4158 65.8177 72.8523 65.8177 71.6248C65.8177 71.1725 65.7534 71.0175 65.4191 70.7332C65.2005 70.5523 64.9434 70.4231 64.8662 70.4489C64.7891 70.4748 64.7248 70.7978 64.7248 71.1984ZM37.144 74.1574C37.9541 75.1911 40.0242 76.4186 41.9787 77.0388C43.6631 77.5686 47.1734 78.1888 47.1734 77.9562C47.1734 77.8916 46.5819 77.672 45.849 77.4652C43.4316 76.7675 39.6899 75.1135 37.7226 73.8602C36.694 73.2141 36.4882 73.3175 37.144 74.1574ZM74.3813 78.6152C75.4356 81.0961 77.1329 86.4197 77.1329 87.2983C77.1329 87.7506 77.3644 87.7764 77.8787 87.3888C78.1358 87.195 78.3673 87.027 78.393 87.0012C78.4702 86.9495 77.4801 84.0809 76.8757 82.6337C76.1043 80.7472 73.7512 76.4832 73.5841 76.6383C73.5583 76.6641 73.9184 77.5557 74.3813 78.6152ZM64.7891 84.5719C63.7476 84.9983 63.2847 86.536 63.9147 87.4663C64.3905 88.1641 64.8276 88.4096 65.6506 88.4613C66.242 88.5 66.4863 88.4613 66.8207 88.2545C68.1836 87.3888 68.0422 85.3731 66.5635 84.6366C65.8949 84.3135 65.4834 84.3006 64.7891 84.5719ZM29.1591 86.7427C29.7763 88.3191 30.6249 91.0455 30.7921 92.0146C30.8564 92.4281 30.9335 92.5056 31.525 92.7382C32.0393 92.932 32.2065 92.945 32.2322 92.8287C32.2965 92.5832 30.9206 89.1719 30.1106 87.5309C29.3905 86.0967 28.6833 84.9467 28.5805 85.05C28.5419 85.0759 28.8119 85.8382 29.1591 86.7427ZM47.1348 86.9365C46.9676 87.0012 46.6462 87.2337 46.4276 87.4663C45.7204 88.177 45.7204 89.3141 46.4405 90.141C47.1991 91.0068 48.2277 91.1877 49.1664 90.632C50.928 89.5983 50.1179 86.8203 48.0606 86.8203C47.7263 86.8203 47.302 86.8719 47.1348 86.9365Z" fill="#D53232"/>
<path d="M64.725 38.8951C65.4322 39.244 65.908 39.735 66.1523 40.3811C66.3837 41.0013 66.3194 41.7249 65.998 41.9833C65.7794 42.1772 65.7922 42.203 65.5094 41.4277C64.7507 39.3991 61.7805 39.58 61.3433 41.6861C61.2147 42.3064 60.9961 42.3581 60.7261 41.8412C60.4175 41.2468 60.5333 40.3165 60.9961 39.7092C61.7548 38.7142 63.5678 38.3137 64.725 38.8951Z" fill="#D53232"/>
<path d="M49.6549 40.562C50.1178 40.7041 50.8508 41.2597 51.1079 41.6603C51.4165 42.1254 51.5708 42.9524 51.4165 43.34C51.2622 43.7664 51.0565 43.7535 50.8893 43.3013C50.5936 42.5389 49.6035 41.867 48.742 41.8541C48.2663 41.8541 47.4948 42.1513 47.1347 42.4743C46.7361 42.8361 46.4018 43.6114 46.4018 44.1799C46.4018 44.4642 46.3375 44.6968 46.2733 44.6968C45.9904 44.6968 45.6432 44.167 45.5532 43.5985C45.386 42.4614 45.9904 41.3631 47.0962 40.7945C47.6876 40.4973 49.0635 40.3681 49.6549 40.562Z" fill="#D53232"/>
<path d="M65.6894 46.1827C65.7794 46.2861 65.8179 46.467 65.7665 46.5703C65.6765 46.8288 65.1236 46.8158 64.905 46.5574C64.7636 46.3765 64.7764 46.3248 64.9822 46.1698C65.2908 45.9372 65.4836 45.9372 65.6894 46.1827Z" fill="#D53232"/>
<path d="M43.483 48.3923C43.6373 48.5603 43.5859 49.0513 43.3802 49.2193C43.1102 49.4518 42.7758 49.1547 42.8273 48.7153C42.8658 48.3794 43.2773 48.1856 43.483 48.3923Z" fill="#D53232"/>
<path d="M49.0252 48.8702C49.0766 49.1157 49.308 49.5938 49.5523 49.9427C50.0667 50.6534 49.9895 50.873 49.308 50.6404C48.678 50.4337 48.3308 49.9556 48.3308 49.2966C48.3308 48.4309 48.8837 48.0949 49.0252 48.8702Z" fill="#D53232"/>
<path d="M47.1607 49.9688C47.3021 50.3952 47.5464 50.8346 47.6878 50.9638C48.035 51.2868 48.0093 51.416 47.585 51.416C46.9678 51.4031 46.402 50.7312 46.402 49.9947C46.402 49.5683 46.582 49.2194 46.8006 49.2194C46.8392 49.2194 47.0064 49.5553 47.1607 49.9688Z" fill="#D53232"/>
<path d="M31.5509 52.3461C31.5766 52.4366 31.6538 52.7208 31.7309 52.9793C32.0267 53.9484 33.1453 54.6461 34.3797 54.6461C34.984 54.6461 35.0869 54.6849 35.0869 54.8787C35.0869 55.318 34.2254 55.8736 33.3253 56.0158C31.7566 56.2613 30.2394 54.7882 30.5094 53.2894C30.6508 52.5787 31.3966 51.8939 31.5509 52.3461Z" fill="#D53232"/>
</svg>
