<svg width="302" height="277" viewBox="0 0 302 277" fill="none" xmlns="http://www.w3.org/2000/svg">
<path d="M260.773 0.214699C262.709 0.958138 267.441 5.41877 268.05 7.11806C268.158 7.47208 268.409 7.36588 269.054 6.79945C270.165 5.77279 272.818 4.67533 274.396 4.49832L275.65 4.39211V6.16221C275.614 7.11806 275.507 8.18012 275.328 8.49873C275.148 8.95896 275.328 9.10056 276.296 9.27757C278.375 9.59618 280.132 10.4812 280.132 11.2247C280.132 11.6141 279.415 12.5699 278.518 13.3842L276.905 14.8711L277.837 16.0747C279.02 17.6324 280.203 20.7478 279.952 21.5974C279.809 21.9514 279.415 22.2701 279.02 22.2701C277.909 22.2701 276.833 21.562 277.048 20.9956C277.299 20.3938 275.973 19.7919 274.36 19.7919C273.463 19.7919 273.32 19.9335 273.32 20.7478C273.284 23.4383 271.062 25.9519 267.62 27.2617C265.11 28.1822 258.084 28.7486 251.631 28.5362C245.716 28.3592 243.923 27.9344 241.736 26.1643L240.41 25.1376L238.94 26.1997C236.897 27.6157 236.036 29.138 236.036 31.2267C236.036 32.218 235.749 33.4924 235.319 34.3067C234.387 36.1122 234.674 37.245 236.287 38.4487C236.968 38.9797 237.793 39.971 238.115 40.6436C238.868 42.2013 239.908 42.4137 241.557 41.4225C243.063 40.4666 244.784 40.502 248.01 41.4225C251.738 42.5199 254.571 42.2721 259.267 40.3958C261.275 39.5816 263.282 38.9089 263.676 38.9089C264.071 38.9089 265.146 39.617 266.078 40.502C267.441 41.8119 267.978 42.0951 269.054 42.0951C270.918 42.0951 271.599 41.1038 271.312 38.8735C270.846 35.5104 272.388 34.6253 278.482 34.6961C282.139 34.7669 282.677 34.6961 283.86 33.9527C287.517 31.7578 287.158 28.5362 282.784 24.288C281.064 22.6595 280.49 21.8452 280.49 21.1018C280.49 19.1193 282.964 20.3938 286.585 24.288C289.453 27.3325 290.205 30.3771 288.7 32.749C288.305 33.4216 287.839 33.9527 287.732 33.9527C287.588 33.9527 287.266 34.0943 287.015 34.2359C286.692 34.4483 287.122 35.0855 288.52 36.4662C290.456 38.3779 291.245 40.0418 291.245 42.2013C291.245 43.6528 290.349 45.4937 289.345 46.1663C288.556 46.6619 288.485 46.8744 288.771 48.1134C288.951 48.8569 289.417 50.3437 289.847 51.3704C290.385 52.7511 290.564 53.7777 290.456 55.2292L290.313 57.2471L292.643 58.0613C294.615 58.734 295.439 59.3004 297.555 61.3537C300.638 64.4337 302 66.9472 302 69.6378C302 71.2662 301.857 71.6911 300.96 72.5761C299.813 73.709 299.06 73.8152 296.873 73.1779C295.834 72.8593 295.117 72.2929 294.221 71.0538C293.324 69.8148 292.715 69.3545 292.105 69.3545C290.743 69.3545 290.671 70.3104 291.711 73.2487C292.787 76.2579 292.93 78.4528 292.177 79.9397C290.887 82.347 287.552 82.9489 285.509 81.108C284.577 80.2937 284.326 79.7627 284.003 77.5678C283.681 75.4083 283.466 74.8772 282.569 74.1338C281.888 73.5674 281.064 73.2487 280.239 73.2487C279.164 73.2487 278.662 72.9301 277.084 71.3016C274.575 68.7173 273.428 68.7173 270.524 71.1954C269.878 71.7265 268.05 72.8239 266.509 73.6028C262.816 75.4437 260.808 75.5145 258.012 73.9568C254.929 72.2221 253.172 72.6469 251.631 75.4083C250.914 76.7535 250.269 77.3554 248.906 78.028C246.935 79.0192 247.006 78.8068 247.006 82.5948C246.97 85.25 246.899 85.4624 246.038 85.9226C243.601 87.3033 241.951 85.1792 242.346 81.2142C242.668 78.028 242.382 77.7802 239.119 78.0634C236.287 78.3112 235.642 77.9572 235.14 76.0101C234.925 75.1604 235.14 74.771 237.004 73.0009C238.725 71.337 239.227 70.5936 239.585 69.1775C239.836 68.2217 240.195 67.2304 240.374 67.018C240.589 66.7702 240.517 66.4516 240.195 66.2038C239.442 65.6019 238.689 62.9822 238.151 59.3358C237.721 56.2204 237.685 56.2204 236.359 55.5124C234.638 54.6628 234.1 53.0343 234.1 48.9985C234.1 46.6265 234.244 45.8831 235.068 44.3254C235.606 43.3342 236.18 42.4137 236.395 42.2721C236.861 41.9889 236.861 41.033 236.359 41.033C235.391 41.033 233.491 39.794 232.81 38.7319C231.949 37.3512 231.878 35.829 232.63 34.0589C232.917 33.3862 233.168 32.3242 233.168 31.7578C233.168 28.4654 234.997 25.527 237.936 24.2172L239.693 23.4029L239.836 21.4204C239.944 20.3584 240.231 18.8007 240.553 17.9864C241.27 15.8977 245.106 10.3042 248.369 6.55164C252.742 1.52457 255.144 -0.0685196 258.335 0.00228119C259.374 0.00228119 260.486 0.10849 260.773 0.214699ZM254.929 4.25051C253.137 5.17096 250.197 8.07391 247.616 11.4725C245.357 14.4463 244.855 15.5791 245.536 16.4641C245.967 17.066 246.038 17.066 246.935 16.4995C247.436 16.1455 247.867 15.6499 247.867 15.3667C247.867 15.0835 248.369 14.3046 248.978 13.5966C249.946 12.5345 250.304 12.3575 251.703 12.3575C253.782 12.3575 254.571 11.8973 254.857 10.5166C255.503 7.61369 257.295 6.09141 259.554 6.48083C261.49 6.87025 263.497 9.844 262.099 10.3396C261.884 10.4104 261.239 9.98561 260.737 9.38378C259.876 8.42793 259.697 8.35712 258.873 8.71114C257.797 9.20677 256.722 11.0123 257.044 11.7911C257.367 12.6408 258.801 12.8532 259.805 12.2159C260.271 11.8973 260.988 11.5787 261.346 11.4725C262.637 11.2247 264.752 10.198 264.931 9.73779C265.397 8.53413 262.637 4.88775 260.593 4.0027C258.98 3.29466 256.65 3.40086 254.929 4.25051ZM271.958 7.36587C271.241 7.71989 270.309 8.39253 269.95 8.78195C269.233 9.56079 269.233 9.56078 270.38 11.8265C271.241 13.5966 271.707 14.1276 272.28 14.1276C273.213 14.1276 277.264 12.3575 277.264 11.9681C277.264 11.6849 273.965 10.5874 273.069 10.5874C272.424 10.5874 272.496 9.98561 273.32 8.18011C274.073 6.51623 273.894 6.41002 271.958 7.36587ZM261.131 15.0127C259.948 15.6145 259.446 16.7828 260.056 17.4908C260.665 18.2342 261.597 18.1634 262.709 17.2784C263.712 16.4996 263.892 15.5791 263.21 14.9065C262.673 14.3754 262.386 14.3754 261.131 15.0127ZM252.85 15.7915C251.559 16.5704 250.806 18.1634 251.452 18.9069C252.133 19.6857 252.814 19.5441 253.997 18.4113C255.108 17.3138 255.323 16.3225 254.606 15.6145C254.069 15.0835 254.105 15.0835 252.85 15.7915ZM272.245 15.6853C272.245 15.7207 272.424 16.2871 272.639 16.9244C272.997 17.951 273.141 18.0218 274.826 18.0218H276.582L275.83 17.0306C275.399 16.4995 274.718 15.9685 274.288 15.8269C273.392 15.5791 272.245 15.4729 272.245 15.6853ZM245.644 20.3938C244.819 21.1018 244.784 22.5887 245.608 22.8719C246.504 23.2259 247.974 21.385 247.508 20.4646C247.042 19.6503 246.504 19.6149 245.644 20.3938ZM263.139 21.3142C262.314 21.916 262.529 23.1197 263.497 23.2613C264.501 23.4029 265.971 22.1992 265.684 21.4558C265.397 20.7478 264.035 20.677 263.139 21.3142ZM253.925 22.5533C252.993 23.3321 253.208 24.3942 254.284 24.3942C255.323 24.3942 256.65 23.1905 256.363 22.5179C256.076 21.739 254.965 21.7744 253.925 22.5533ZM280.383 45.6353C279.881 46.0247 279.056 47.0514 278.554 47.901C277.335 49.9897 274.718 51.2996 271.886 51.2996C270.201 51.2996 269.52 51.0872 267.728 50.0251C266.58 49.3171 265.254 48.609 264.788 48.432C263.533 47.9364 262.242 48.432 261.633 49.5649C261.167 50.5207 261.167 50.8394 261.705 52.9635C262.529 56.2912 262.242 58.1321 260.629 59.7606C259.374 60.9997 259.231 61.0351 256.722 61.0351C254.571 61.0351 253.925 60.8935 252.921 60.1855C251.165 58.9464 250.735 57.5657 250.735 53.1051C250.735 48.8569 250.376 48.0072 248.512 47.547C247.723 47.37 247.329 47.547 246.433 48.3966C245.25 49.6003 245.106 50.4853 245.752 53.4237C246.253 55.7602 245.608 56.9639 243.816 56.9639C241.987 56.9639 241.055 56.1142 241.055 54.4858C241.055 53.4237 240.876 52.9989 240.302 52.6803C239.227 52.1138 238.366 52.9635 238.832 54.1671C239.478 55.7602 240.302 58.911 240.733 61.3183C241.234 64.3275 242.238 65.8498 244.174 66.5224C245.465 66.9472 246.433 66.9472 250.627 66.5932C256.076 66.133 259.912 65.4249 272.711 62.4866C283.179 60.1147 285.975 59.2296 287.302 58.0259C288.843 56.6099 288.986 55.5124 288.019 51.7952C287.302 49.1047 287.23 48.3612 287.588 47.6178C287.983 46.7327 287.947 46.6973 286.979 46.6973C286.405 46.6973 285.688 46.5911 285.366 46.4849C284.9 46.3079 284.792 46.5203 284.792 47.37C284.792 48.2196 284.613 48.5028 283.896 48.6798C282.892 48.9277 281.566 48.0426 281.566 47.1576C281.566 46.6265 282.139 46.5557 282.462 47.0514C282.784 47.5824 283.358 47.1222 283.358 46.3433C283.358 45.6707 282.498 44.9627 281.709 44.9272C281.494 44.9272 280.884 45.2459 280.383 45.6353ZM251.093 45.5999C251.093 46.2725 253.137 50.3083 253.352 50.0251C253.459 49.8481 253.638 49.1047 253.782 48.3966C253.997 47.2992 253.889 46.9452 253.101 46.2017C252.24 45.3167 251.093 44.9627 251.093 45.5999ZM267.226 47.547C267.226 48.1842 268.588 49.1755 269.448 49.1755C270.416 49.1755 270.201 48.609 268.911 47.7948C267.548 46.9098 267.226 46.8744 267.226 47.547ZM236.395 53.9901C236.395 54.5566 236.968 54.6628 237.291 54.1317C237.578 53.6715 237.148 52.9989 236.717 53.2467C236.538 53.3883 236.395 53.7069 236.395 53.9901ZM252.169 55.123C252.169 56.7515 253.352 58.734 254.32 58.734C254.714 58.734 255.037 58.6278 255.037 58.5216C255.037 57.9551 252.671 53.5299 252.42 53.6715C252.276 53.7423 252.169 54.415 252.169 55.123ZM242.704 54.3441C242.417 55.0522 242.74 55.5478 243.421 55.5478C243.708 55.5478 243.923 55.1938 243.923 54.6628C243.923 53.6715 243.063 53.4591 242.704 54.3441ZM291.066 61.2829C292.177 61.9201 294.794 64.3983 295.009 65.0709C295.081 65.3895 295.26 66.1684 295.332 66.7702C295.583 69.0713 297.519 69.7794 298.2 67.8677C298.881 65.9206 295.081 61.7785 291.819 60.9289C290.492 60.5395 290.062 60.7519 291.066 61.2829ZM238.402 74.5232C237.649 74.8064 237.685 75.9393 238.438 76.2225C239.191 76.5057 240.159 75.6207 239.872 74.8772C239.621 74.2754 239.299 74.2046 238.402 74.5232ZM285.581 77.7094C285.688 79.1963 286.656 80.0459 287.337 79.3733C287.66 79.0546 287.588 78.6652 286.907 77.674C285.796 76.0809 285.437 76.1163 285.581 77.7094ZM243.851 82.2762C243.565 82.9489 243.565 83.2675 243.923 83.6923C244.568 84.4357 244.999 84.0109 244.999 82.5948C244.999 81.1788 244.425 81.0018 243.851 82.2762Z" fill="#D53232"/>
<path d="M246.433 59.0525C246.433 59.4419 246.289 59.7959 246.11 59.7959C245.465 59.7959 245.357 59.1587 245.895 58.7338C246.361 58.3798 246.433 58.4152 246.433 59.0525Z" fill="#D53232"/>
<path d="M134.008 32.926C137.342 33.3508 141.823 34.9439 144.297 36.5016C146.591 37.953 149.782 41.5286 150.785 43.7236C152.829 48.3258 152.972 53.1404 151.216 57.4949C150.427 59.4066 149.674 60.504 147.882 62.3095C146.555 63.584 145.085 64.9293 144.547 65.3187L143.615 65.9913L144.942 68.2924C145.695 69.5669 147.272 72.2574 148.491 74.3108L150.642 77.9925L153.402 78.8422C154.944 79.3024 156.808 80.0813 157.525 80.5415C160.787 82.6656 161.791 86.489 159.82 89.0733C158.744 90.454 157.095 91.5869 155.625 91.9055C154.657 92.0825 154.334 92.5427 154.98 92.7905C155.518 92.9675 158.708 98.5964 160.142 101.924C162.723 107.943 164.659 116.899 164.695 122.882C164.695 125.714 164.803 125.75 167.993 124.44L170.073 123.59V126.033C170.073 130.246 168.137 133.998 164.767 136.406C163.404 137.397 163.046 137.963 162.042 140.583C160.465 144.69 157.884 148.655 154.693 151.841C152.47 154.036 152.04 154.673 152.112 155.487C152.183 156.054 152.004 156.974 151.753 157.541C151.395 158.496 151.431 158.673 152.183 159.488C152.65 159.983 153.474 160.691 153.976 161.081C154.908 161.718 154.944 161.718 156.342 160.975C157.131 160.55 157.991 160.302 158.314 160.408C158.959 160.656 160.752 165.506 161.003 167.665C161.11 168.515 161.469 169.4 161.899 169.754C162.544 170.356 162.687 170.356 163.548 169.86C164.982 169.082 165.018 167.559 163.584 165.789C162.974 165.046 162.15 163.771 161.755 163.028L161.038 161.612L162.042 160.762C163.046 159.877 163.082 159.877 168.854 160.125C174.984 160.373 181.258 161.293 184.879 162.497C189.647 164.09 196.494 169.896 202.624 177.507C204.202 179.454 206.424 181.826 207.572 182.782C209.902 184.694 214.526 189.544 214.526 190.075C214.526 190.287 213.666 191.597 212.626 193.013C207.93 199.386 206.46 202.501 207.894 203.032C208.181 203.174 208.683 203.067 208.97 202.82C210.189 201.828 215.996 193.863 218.255 190.075C221.338 184.977 222.091 184.021 226.393 179.631C228.293 177.684 230.336 175.312 230.91 174.356C232.81 171.135 234.674 170.533 239.406 171.666C241.306 172.091 241.45 172.091 242.669 171.276L243.923 170.427L243.887 164.55C243.887 154.142 246.11 146.885 250.842 142.035C253.818 138.99 255.467 138.247 259.41 138.211H262.565V137.043C262.565 135.591 261.633 134.671 259.841 134.352C256.722 133.75 254.105 131.591 253.28 128.865C252.85 127.343 252.778 122.422 253.208 118.811C253.388 117.147 253.352 116.297 253.065 116.085C252.814 115.873 251.308 115.483 249.695 115.2C241.629 113.678 235.893 110.775 233.204 106.88C232.272 105.5 231.985 104.721 231.842 102.915C231.699 100.968 231.77 100.508 232.523 99.4461C232.989 98.7734 233.491 98.2778 233.67 98.384C233.814 98.4902 233.993 99.4815 234.029 100.579C234.244 105.358 239.478 109.182 248.871 111.377C252.097 112.12 253.89 112.297 260.056 112.439C266.33 112.616 268.194 112.509 272.639 111.872C275.543 111.483 279.415 110.739 281.279 110.279C284.505 109.465 289.273 107.411 290.6 106.279C290.958 105.96 291.496 105.818 291.819 105.96C292.321 106.172 292.321 106.279 291.711 107.199C290.887 108.509 288.7 110.244 286.513 111.341C285.222 111.978 277.049 114.669 276.332 114.669C275.973 114.669 276.26 116.12 277.443 119.661C278.805 123.873 278.877 124.404 278.303 127.06C277.837 129.254 276.367 131.025 274.037 132.193C273.141 132.653 272.173 133.29 271.922 133.573C271.384 134.211 271.348 139.592 271.815 141.397C272.101 142.353 272.209 142.459 273.356 142.282C279.056 141.468 283.537 143.628 284.434 147.699C284.971 150.071 284.505 151.947 282.892 153.788L281.673 155.169L282.785 155.735C283.394 156.018 284.219 156.939 284.685 157.824C286.19 160.656 285.581 164.019 283.179 165.895L282.068 166.78L283.036 167.736C284.219 168.905 284.9 171.206 284.577 172.905C284.326 174.356 282.247 177.189 281.207 177.507C280.419 177.755 280.239 178.392 280.956 178.392C281.853 178.392 283.071 180.127 283.394 181.791C283.788 183.809 283.036 185.72 281.1 187.597L279.809 188.836L279.773 192.765C279.773 197.615 279.092 199.209 276.367 200.872C274.862 201.793 274.288 201.934 272.101 201.934C269.95 201.934 269.269 201.793 267.871 200.943C265.935 199.846 264.465 197.651 263.928 195.173C263.533 193.438 263.569 193.438 262.458 194.004C261.311 194.606 261.311 194.606 261.992 195.35C262.35 195.704 262.816 196.837 263.103 197.828C263.354 198.819 264.071 200.2 264.68 200.908C265.899 202.253 266.15 204.129 265.326 205.545C263.426 208.873 258.335 216.343 256.076 219.104C249.516 227.247 241.019 233.442 232.2 236.557C223.812 239.531 215.136 239.956 208.683 237.655C207.249 237.159 205.815 236.664 205.456 236.557C204.883 236.38 204.847 236.947 204.847 245.054C204.847 250.364 204.704 254.152 204.453 254.754C203.843 256.347 202.696 257.338 201.477 257.338H200.366V243.071C200.33 220.343 199.039 208.59 194.63 191.491C191.26 178.286 189.396 172.728 188.32 172.728C187.316 172.728 187.675 174.923 191.009 188.694C194.45 202.961 196.171 214.856 196.924 230.256C197.175 235.212 197.068 252.311 196.781 253.798C196.709 254.081 196.637 255.852 196.637 257.763L196.601 261.162L193.805 262.932C192.264 263.923 189.503 265.516 187.639 266.472C184.377 268.207 183.05 268.773 177.995 270.649L175.737 271.499L175.952 269.977C176.06 269.163 176.346 266.649 176.526 264.419C176.741 262.188 177.171 257.869 177.458 254.86C178.246 246.647 178.497 231.637 177.995 223.423C177.314 213.334 174.231 189.473 173.263 186.995C172.905 186.004 169.069 184.8 162.186 183.525C147.989 180.835 140.819 179.348 140.461 178.994C140.066 178.64 140.676 178.144 143.257 176.622C148.634 173.507 150.857 170.887 151.789 166.639C152.183 165.01 152.183 164.515 151.789 164.054C151.072 163.205 150.785 163.417 150.319 165.01C149.423 168.409 147.559 170.568 143.078 173.471C141.357 174.604 139.528 175.843 138.991 176.268C137.915 177.082 137.7 176.941 137.091 174.817C136.589 173.082 137.198 172.197 140.747 169.613C145.551 166.108 147.487 163.594 147.487 160.798C147.487 160.054 147.631 158.85 147.81 158.107C148.061 157.08 148.025 156.797 147.702 156.903C142.97 158.709 141.142 159.063 136.374 159.063C131.498 159.098 128.092 158.603 126.838 157.682C126.264 157.293 126.981 157.222 131.892 157.187C136.947 157.187 137.987 157.08 140.604 156.301C148.097 154.071 153.367 149.681 156.952 142.778C157.633 141.433 158.278 139.91 158.421 139.415C158.636 138.494 158.636 138.494 156.342 138.317C152.47 137.999 148.097 135.556 146.017 132.582C145.049 131.166 144.619 130.989 144.619 132.016C144.619 132.37 143.795 134.282 142.791 136.264C139.815 141.999 136.266 144.76 130.494 145.858C124.328 146.991 117.768 144.831 113.394 140.264C112.211 138.99 111.315 137.893 111.386 137.786C111.494 137.715 112.569 137.822 113.824 138.034C116.656 138.53 118.7 138.247 121.604 136.937C125.045 135.414 127.017 133.857 133.506 127.591C138.31 122.953 139.744 121.714 141.213 121.183C142.181 120.829 143.113 120.369 143.257 120.192C143.83 119.413 143.508 118.103 142.074 115.306C140.568 112.368 139.959 109.182 140.927 109.182C141.464 109.182 145.48 114.35 146.447 116.333C146.949 117.359 147.164 118.386 147.093 119.519C147.021 120.723 147.129 121.218 147.487 121.324C147.774 121.395 149.71 122.245 151.789 123.165C155.267 124.758 159.999 125.927 160.823 125.431C161.289 125.148 161.146 118.669 160.572 114.846C159.569 108.226 157.704 102.172 154.98 96.7909C154.012 94.8438 152.9 93.0029 152.578 92.7197C152.04 92.2595 150.821 92.2241 144.619 92.4011C128.128 92.8967 114.828 96.2245 103.571 102.632C93.9991 108.084 86.9008 116.439 86.9008 122.245C86.9008 123.059 86.9725 123.838 87.1159 123.944C87.2235 124.05 88.048 123.909 88.9443 123.661C89.8405 123.378 90.8085 123.165 91.0953 123.165C92.0274 123.165 90.7368 124.581 88.1197 126.351C84.8215 128.617 84.2479 129.502 84.2121 132.193C84.2121 134.742 85.2517 136.724 87.7971 139.061C90.45 141.468 93.2821 142.353 98.4803 142.353C102.101 142.353 102.352 142.707 99.6634 143.982L97.9426 144.796L99.4841 146.106C100.345 146.814 103.105 149.221 105.579 151.416C110.06 155.346 110.167 155.452 110.884 157.788C111.566 160.089 112.139 162.249 112.533 164.338C112.892 166.143 115.186 167.064 123.683 168.834C131.247 170.391 133.075 171.347 134.223 174.392C135.155 176.835 135.191 177.861 134.294 177.507C133.972 177.33 132.502 176.905 131.068 176.516C128.702 175.843 128.415 175.843 127.877 176.339C127.124 177.082 127.519 177.613 129.526 178.463C135.549 181.083 146.089 183.88 155.625 185.473C159.138 186.039 163.62 186.782 165.555 187.101C170.574 187.915 170.61 187.915 171.112 190.712C172.224 196.553 173.693 208.201 174.41 216.626C174.984 223.459 174.876 239.283 174.195 247.249C173.335 257.551 171.399 272.455 170.861 272.951C169.965 273.8 155.625 276.243 148.527 276.774C142.898 277.199 126.156 276.986 121.675 276.455C105.686 274.579 95.1822 271.181 90.199 266.295C88.0839 264.206 87.2593 262.613 87.2593 260.595C87.2593 259.498 87.5103 259.002 88.7292 257.869C91.1311 255.568 94.501 250.223 93.9274 249.621C93.8199 249.55 92.5651 250.506 91.167 251.816C81.0215 261.091 70.625 265.233 58.4002 264.914C52.3774 264.737 46.749 263.392 42.0168 260.985C39.0771 259.462 33.377 254.825 31.0826 252.099C28.3938 248.842 27.6051 246.789 27.4617 242.717C27.2825 238.54 28.0353 235.814 30.4014 231.849C32.3373 228.627 35.8148 224.379 36.7468 224.167C37.3204 224.025 37.428 223.636 37.428 221.972V219.989L33.0185 218.644C29.1108 217.405 22.5144 214.927 14.3048 211.564C10.3972 209.971 10.1821 209.581 8.74811 202.041C6.20276 188.73 2.40265 170.25 0.502594 162.037C-0.644592 157.151 0.0724182 155.841 3.69324 156.195L5.80838 156.408L5.95178 154.284C6.09518 152.584 6.27441 151.982 7.06311 151.204C7.95938 150.354 8.28204 150.248 10.4689 150.283C15.8464 150.354 27.8561 153.823 34.9185 157.328C38.9695 159.346 42.7338 161.683 45.4584 163.842C46.7848 164.94 48.1113 165.966 48.3622 166.143C48.7207 166.391 49.5094 165.895 51.1944 164.338C54.3491 161.399 56.0699 160.266 61.9852 157.328C69.6929 153.434 86.9008 148.194 89.8047 148.832C91.4538 149.186 92.2783 150.46 92.8161 153.469C93.3538 156.655 93.8199 157.151 96.1143 157.151C97.1898 157.151 97.7275 157.328 97.9785 157.753C98.2653 158.355 98.7313 161.86 101.062 181.755C101.563 186.039 102.209 191.137 102.496 193.084C102.782 195.031 103.428 199.952 103.965 203.988C105.041 212.343 104.969 212.732 102.424 213.44C101.671 213.617 99.9144 214.077 98.552 214.467C85.6461 217.865 83.9253 218.432 83.3875 219.6C82.9932 220.485 83.3875 221.228 84.2838 221.228C85.4668 221.228 105.113 216.166 106.081 215.635C106.654 215.281 107.479 214.396 107.837 213.652C108.482 212.343 108.482 212.13 107.909 208.165C107.586 205.899 106.439 197.828 105.364 190.252C104.288 182.64 103.141 175.135 102.818 173.507C102.28 170.781 102.28 170.533 102.854 169.896C103.177 169.542 103.786 169.152 104.216 169.046C104.682 168.94 105.507 168.019 106.224 166.816C106.905 165.683 107.837 164.444 108.339 164.019L109.199 163.311L108.375 161.718C107.909 160.868 107.299 159.558 106.977 158.815C106.618 157.965 104.324 155.381 100.452 151.522C94.6086 145.716 94.3935 145.539 92.6727 145.291C86.614 144.477 81.0932 138.919 80.5554 133.149C80.3762 131.272 80.4837 130.741 81.4516 128.688C82.0611 127.449 82.8498 126.21 83.2441 125.962C83.8536 125.573 83.9253 125.219 83.7819 122.316C83.6026 118.917 83.3158 118.032 79.5516 108.474C77.1497 102.455 74.3892 94.4544 74.3534 93.5694C74.3534 92.8613 74.1383 92.7905 70.8042 92.6489C67.6494 92.5073 66.9324 92.3303 64.5305 91.1974C59.4398 88.8255 56.0341 84.2233 54.7435 78.0279C53.3453 71.1954 55.8907 63.5132 61.2682 58.3445C65.4268 54.3795 69.657 52.6094 74.8194 52.751L77.7591 52.8218L79.3724 49.9543C82.3837 44.5732 85.4668 41.4224 90.916 38.1301C95.1822 35.5457 102.029 33.988 107.12 34.4837C108.482 34.6253 110.92 35.0855 112.533 35.5457L115.509 36.3954L118.126 35.4041C124.328 33.0322 129.204 32.2887 134.008 32.926ZM123.826 35.8997C119.99 36.4662 117.732 37.0326 117.732 37.422C117.732 37.5636 118.269 37.953 118.879 38.3071C119.524 38.6611 120.707 39.4753 121.496 40.148L122.93 41.387L121.137 40.7144C120.134 40.325 118.377 39.6169 117.194 39.1213C113.466 37.599 109.558 37.0326 104.503 37.245C98.1577 37.4928 93.8199 39.0505 88.7292 42.9801C84.8932 45.8831 79.3724 52.5386 79.3724 54.2379C79.3724 54.5565 79.9818 55.3708 80.6988 56.0434C81.4517 56.716 81.9536 57.3533 81.846 57.4949C81.7026 57.6011 80.5912 57.3533 79.3365 56.893C73.9949 55.0167 68.7249 56.4328 64.1003 60.9996C60.4795 64.5752 58.2209 69.8501 58.2209 74.7002C58.2209 79.0192 60.0134 83.1966 63.1324 85.9934C68.3306 90.6664 74.8194 90.1 81.7743 84.2587C84.2838 82.2054 85.1083 81.7097 85.1083 82.4178C85.1083 83.1258 81.8818 87.02 79.5516 89.1087L77.078 91.3391L78.4044 95.3041C79.1573 97.499 80.4837 101.004 81.3441 103.163C82.2045 105.287 83.4592 108.686 84.1045 110.668C84.7498 112.651 85.3593 114.315 85.4668 114.315C85.5744 114.315 86.3631 113.182 87.2593 111.801C90.2349 107.164 97.6558 101.216 105.005 97.6052C108.411 95.9059 115.724 93.2861 120.277 92.0471C127.555 90.1354 136.194 89.1795 146.483 89.1795C154.98 89.1795 156.055 88.9317 157.095 86.8076C157.597 85.7456 157.597 85.5331 157.059 84.3649C156.593 83.409 155.948 82.878 154.37 82.17C152.327 81.2141 152.255 81.2141 144.44 81.2141C137.772 81.2495 135.872 81.3557 132.251 82.0284C116.118 85.0375 102.316 90.6664 92.7085 98.1362C91.4538 99.0921 90.3424 99.8001 90.2349 99.6585C89.7688 99.2337 95.5048 94.2774 99.4124 91.7285C107.335 86.5952 118.7 82.17 129.67 79.9397C134.294 79.0192 140.819 78.2404 144.153 78.205C145.587 78.205 146.77 78.1342 146.77 78.0634C146.77 77.9571 145.587 76.01 144.117 73.6735C142.647 71.337 141.106 68.7881 140.676 67.9738C140.138 66.9118 139.744 66.5223 139.313 66.664C137.342 67.195 135.693 67.195 132.43 66.6994C130.423 66.4161 128.666 66.0975 128.487 65.9913C128.307 65.8851 129.168 64.7876 130.423 63.584C132.323 61.7431 132.753 61.0705 133.255 59.2296C133.577 58.0613 133.864 56.539 133.864 55.8664C133.9 54.2025 134.438 55.1938 134.725 57.4949C135.011 59.619 134.33 62.1325 132.968 63.9026C132.179 64.9293 132.108 65.1417 132.609 65.3187C133.398 65.6373 140.962 63.1592 142.863 61.9555C148.634 58.3445 150.678 50.4499 147.487 44.0068C145.623 40.2542 141.321 37.1034 136.445 35.9351C133.721 35.2625 128.021 35.2625 123.826 35.8997ZM272.424 115.519C271.958 116.191 271.886 116.864 272.101 118.528C272.388 121.077 271.994 121.749 270.309 121.749C268.409 121.749 267.835 121.077 267.656 118.598C267.513 116.828 267.333 116.297 266.688 115.873C266.079 115.483 265.648 115.448 264.967 115.696C263.533 116.227 263.211 117.182 263.497 120.121C263.712 122.67 263.712 122.741 262.816 123.342C261.812 123.98 259.948 123.838 259.446 123.059C259.267 122.811 259.088 121.466 258.98 120.015C258.837 117.678 258.693 117.324 257.833 116.687C257.295 116.262 256.758 116.05 256.65 116.12C256.578 116.227 256.399 118.669 256.292 121.608C256.076 126.281 256.112 127.024 256.722 128.086C257.582 129.715 258.801 130.529 260.916 130.918C264.143 131.52 265.541 133.255 265.971 137.326C266.114 138.601 266.437 140.654 266.724 141.893C266.975 143.167 267.118 144.3 267.011 144.477C266.724 144.937 267.333 144.796 268.122 144.194C268.767 143.698 268.839 143.238 268.839 138.211C268.839 131.98 268.947 131.697 272.101 129.608C273.069 128.936 274.181 127.909 274.575 127.307C275.471 125.891 275.471 122.953 274.611 120.51C274.252 119.519 273.894 117.82 273.786 116.687C273.571 114.492 273.284 114.209 272.424 115.519ZM269.018 118.351C269.018 118.846 269.198 119.342 269.377 119.448C269.843 119.731 270.237 118.74 269.95 118.032C269.628 117.182 269.018 117.43 269.018 118.351ZM260.558 119.448C260.307 120.475 260.594 121.395 261.131 121.395C261.346 121.395 261.597 121.147 261.705 120.864C261.992 120.156 261.561 118.563 261.131 118.563C260.952 118.563 260.701 118.952 260.558 119.448ZM255.359 141.61C251.918 143.309 249.516 147.203 248.082 153.363C247.186 157.116 245.931 164.975 245.537 169.471C245.286 171.914 244.927 172.799 244.461 172.02C244.067 171.418 243.78 171.63 242.203 173.613C240.374 175.914 240.374 176.516 242.418 180.162C245.644 186.004 250.735 192.128 254.463 194.642L256.076 195.739L257.905 193.473C259.697 191.208 260.988 190.429 262.995 190.429C263.82 190.429 263.784 190.393 262.852 188.623C262.063 187.136 261.848 184.977 262.314 183.278C262.529 182.463 262.386 182.251 261.024 181.437C259.16 180.375 256.937 178.038 256.614 176.835C256.327 175.595 257.367 172.728 258.801 170.852L260.02 169.259L259.303 168.621C257.51 166.993 256.901 164.302 257.726 161.258L258.263 159.204L256.865 157.682C255.395 156.089 254.786 154.319 255.216 152.832C255.646 151.451 256.865 150.425 259.769 148.973C262.745 147.486 263.569 146.637 263.892 144.619C264.465 141.114 259.697 139.415 255.359 141.61ZM273.141 144.937C270.094 145.752 268.409 146.531 263.533 149.575C258.765 152.513 258.263 152.974 258.263 154.213C258.263 156.124 262.099 157.859 266.365 157.859C272.818 157.824 280.741 154.107 281.924 150.566C282.749 148.088 281.745 146.106 279.056 144.973C277.443 144.265 275.794 144.265 273.141 144.937ZM82.7422 153.08C68.3664 157.328 58.5436 161.47 52.2699 166.002C50.9076 166.957 49.5811 167.772 49.2943 167.772C49.0075 167.772 47.5735 166.957 46.0678 165.931C35.7072 158.992 24.4503 154.567 12.8708 152.903L10.0387 152.478L9.17828 153.434C8.71225 153.965 8.42545 154.638 8.53299 154.921C8.64053 155.204 8.74811 156.089 8.74811 156.832C8.74811 158.249 8.78394 158.284 11.15 159.346C17.0653 162.001 34.1298 167.772 42.3753 169.896C43.1998 170.108 44.4904 170.639 45.2433 171.064C46.3905 171.737 47.0716 171.843 50.6925 171.843C54.4567 171.843 54.9944 171.772 56.8586 170.852C58.0058 170.321 61.8776 168.905 65.4626 167.701C74.0307 164.869 76.8987 163.771 89.8405 158.107C90.4141 157.895 90.8443 157.541 90.8443 157.328C90.8443 156.549 90.0915 152.407 89.8764 152.089C89.5537 151.558 86.3272 152.018 82.7422 153.08ZM279.235 156.974C278.518 157.434 276.618 158.355 275.005 158.992C272.137 160.125 271.958 160.16 266.33 160.16L260.594 160.196L260.092 161.647C259.375 163.63 259.984 165.648 261.633 166.887C265.111 169.506 274.826 168.621 280.275 165.187C282.354 163.877 283.537 161.683 283.179 159.877C282.892 158.603 281.386 156.089 280.849 156.089C280.669 156.089 279.952 156.478 279.235 156.974ZM276.188 169.719C272.532 171.029 272.245 171.064 267.262 171.099L262.135 171.135L260.916 172.516C258.55 175.206 259.841 178.428 263.677 179.454C268.803 180.835 278.734 178.215 281.315 174.781C282.39 173.33 282.534 170.391 281.566 168.905C281.028 168.055 280.705 167.807 280.383 168.055C280.132 168.267 278.268 169.011 276.188 169.719ZM55.5322 176.516C54.9586 178.251 55.5322 183.596 56.9303 189.685C57.6115 192.659 58.2926 195.244 58.4719 195.385C58.6153 195.562 59.0813 195.739 59.4757 195.81C60.5512 195.987 60.5512 194.854 59.5115 189.969C58.2568 184.021 57.5039 179.277 57.5039 177.047C57.5039 175.277 57.4322 175.171 56.6794 175.277C56.1416 175.348 55.7831 175.737 55.5322 176.516ZM106.977 176.268C106.977 176.481 109.952 178.074 113.573 179.808C122.93 184.304 123.002 184.092 113.967 178.959C109.02 176.162 106.977 175.348 106.977 176.268ZM13.9822 177.012C12.584 177.649 12.1538 179.171 12.584 181.826C13.1218 184.906 14.6275 187.915 18.3917 193.403C20.1125 195.952 21.8333 198.571 22.1559 199.209L22.7654 200.377L24.2711 199.032C25.0956 198.288 26.924 196.907 28.358 195.987C32.5883 193.226 34.2015 190.889 34.2015 187.491C34.2015 184.729 32.2298 182.18 29.6844 181.72C28.0353 181.437 25.5258 182.357 24.3786 183.738L23.5182 184.765L22.5144 183.065C20.937 180.41 18.8936 178.18 17.2445 177.366C15.5237 176.516 15.201 176.481 13.9822 177.012ZM279.2 179.065C279.02 179.242 277.407 179.985 275.615 180.693C273.284 181.614 271.348 182.074 268.66 182.393C265.039 182.817 264.931 182.853 264.609 183.844C263.712 186.464 266.079 189.19 269.628 189.579C273.105 190.004 278.088 187.845 280.168 185.048C281.53 183.171 281.709 181.968 280.992 180.198C280.419 178.782 279.881 178.428 279.2 179.065ZM274.575 191.739C273.428 192.057 271.707 192.199 269.807 192.093L266.867 191.987V192.872C266.867 193.367 267.262 194.606 267.728 195.598C268.767 197.828 270.416 198.748 272.854 198.465C275.005 198.253 276.296 196.943 277.049 194.358C277.837 191.597 277.801 190.641 276.977 190.96C276.654 191.102 275.543 191.456 274.575 191.739ZM160.823 195.244C157.884 197.155 160.357 201.757 164.337 201.757C165.771 201.757 167.563 200.094 167.563 198.748C167.563 197.297 166.488 195.81 164.874 195.031C163.369 194.252 162.257 194.323 160.823 195.244ZM55.6039 198.005C52.951 199.102 50.9792 202.041 47.2509 210.431C44.9206 215.777 42.7696 218.998 41.1922 219.671C40.1167 220.096 39.8658 220.45 39.3639 222.149C37.9657 226.999 40.1167 231.035 46.9282 236.31C50.2981 238.859 54.3491 240.983 58.1851 242.116C61.9852 243.284 65.7135 243.036 69.2627 241.408C72.5967 239.885 74.7836 237.62 74.2458 236.203C74.21 236.062 73.4213 236.026 72.4533 236.062C71.5212 236.097 70.7684 236.026 70.7684 235.885C70.7684 235.779 71.5571 234.61 72.4892 233.301C76.7553 227.495 79.695 222.609 80.6271 219.954C81.3441 217.901 81.3083 214.431 80.5912 213.051C79.5158 210.962 76.361 210.502 74.6402 212.201C74.1741 212.661 73.2779 214.254 72.6684 215.777C70.3023 221.441 66.0004 227.353 62.9173 229.123C61.8418 229.725 61.8418 229.725 62.0569 229.123C62.2003 228.769 63.7418 225.76 65.5343 222.468C71.9873 210.36 72.8477 208.555 73.0986 206.572C73.6722 202.041 70.7325 199.492 66.9683 201.262C65.2117 202.076 63.8135 204.271 61.0172 210.573C58.2926 216.591 56.2492 219.883 53.7038 222.291C52.0547 223.884 52.0189 223.884 52.2699 222.822C52.8793 220.308 56.536 212.059 58.5436 208.732C60.9097 204.767 61.5191 202.82 61.0531 200.766C60.7304 199.315 59.3323 197.969 57.8624 197.757C57.3605 197.686 56.9303 197.58 56.8586 197.545C56.8228 197.545 56.2492 197.722 55.6039 198.005ZM127.124 198.748C125.726 199.917 125.439 201.12 126.192 202.678C127.16 204.66 129.813 205.652 131.857 204.802C134.796 203.598 134.438 199.74 131.211 198.359C129.526 197.651 128.307 197.757 127.124 198.748ZM164.121 219.635C162.186 220.874 162.508 223.954 164.659 225.371C166.452 226.539 168.423 226.468 169.75 225.158C172.941 222.007 167.993 217.157 164.121 219.635ZM130.745 224.592C129.777 225.654 129.706 226.857 130.458 228.309C131.606 230.504 135.585 231.247 137.27 229.548C139.708 227.176 136.911 223.105 133.147 223.459C132 223.6 131.319 223.884 130.745 224.592ZM77.1497 232.628C76.8629 233.478 76.3968 235.035 76.1459 236.097C75.9308 237.159 75.0345 239.39 74.2458 241.054C73.0628 243.425 72.1307 244.7 69.6929 247.107C66.1796 250.612 62.9173 252.418 58.7945 253.126C56.3926 253.515 51.517 253.409 50.2264 252.913C49.9037 252.772 49.6169 252.807 49.6169 253.019C49.6169 253.55 53.1302 254.789 55.9624 255.214C61.5191 256.099 67.757 254.117 72.1665 250.081C76.6478 245.974 78.6912 241.549 78.7271 236.062C78.7271 232.84 78.4044 230.681 77.9742 230.964C77.795 231.035 77.4365 231.814 77.1497 232.628ZM163.978 247.603C160.178 249.55 163.046 255.143 167.42 254.329C169.069 254.046 170.431 252.736 170.431 251.426C170.431 250.01 169.284 248.382 167.886 247.674C166.38 246.93 165.305 246.93 163.978 247.603ZM131.391 251.355C128.343 252.418 128.702 256.347 131.964 258.011C133.613 258.861 136.696 258.117 137.234 256.807C138.274 254.117 136.23 251.426 132.932 251.001C132.717 251.001 132.036 251.143 131.391 251.355Z" fill="#D53232"/>
<path d="M126.264 59.2651C126.049 62.1327 124.256 65.7791 121.89 68.151C117.266 72.6824 110.239 74.1693 102.997 72.0452L101.348 71.5496L98.8387 74.0985C94.3574 78.6299 90.9517 80.3292 85.7893 80.6124C83.0289 80.7541 82.527 80.6833 80.6986 79.7982C78.4759 78.7716 76.6834 77.4617 76.1457 76.3996C75.8589 75.8686 76.2891 76.0102 78.4401 77.0015C82.993 79.1256 87.0082 78.9486 92.2064 76.3642C94.3574 75.3022 99.0896 71.6912 99.3047 70.9477C99.3764 70.7353 98.516 70.0627 97.4047 69.3901C96.2933 68.7174 95.5405 68.1156 95.7914 68.0094C96.0424 67.9386 97.4764 68.2926 98.9821 68.7882C102.926 70.0273 105.507 70.4875 109.092 70.4875C116.405 70.5583 121.352 67.3013 124.973 59.9732L126.407 57.141L126.264 59.2651Z" fill="#D53232"/>
<path d="M255.933 176.976C255.825 177.153 255.646 177.33 255.539 177.33C255.467 177.33 255.395 177.153 255.395 176.976C255.395 176.764 255.574 176.622 255.789 176.622C255.969 176.622 256.04 176.764 255.933 176.976Z" fill="#D53232"/>
<path d="M246.791 34.165C248.118 34.519 250.089 34.6606 252.886 34.5544L257.008 34.4482L255.395 35.1209C253.459 35.9705 249.301 36.2891 247.329 35.7581C245.859 35.3687 243.314 33.5986 244.282 33.634C244.569 33.6694 245.716 33.9172 246.791 34.165Z" fill="#D53232"/>
<path d="M298.523 74.5585C299.024 75.3727 299.168 79.4439 298.773 81.0724C298.272 83.1611 295.834 85.9933 294.543 85.9933C293.468 85.9933 293.539 85.6747 295.009 83.5152C296.479 81.391 296.981 79.7626 296.981 77.249C296.981 76.2578 297.089 75.1957 297.196 74.8771C297.411 74.2753 298.236 74.0983 298.523 74.5585Z" fill="#D53232"/>
<path d="M257.976 79.975C259.088 80.9308 260.127 81.7451 260.271 81.7451C260.414 81.7451 260.916 81.391 261.382 80.9662L262.207 80.2228V80.9662C262.207 81.9575 261.561 83.6214 261.024 83.94C260.02 84.5772 258.586 84.1878 257.224 82.9841C255.037 81.0016 253.997 78.2049 255.503 78.2049C255.754 78.2049 256.865 78.9837 257.976 79.975Z" fill="#D53232"/>
<path d="M277.515 78.8068C278.196 79.0546 278.088 80.1166 277.335 80.7893C276.367 81.6743 272.531 82.4886 270.058 82.3824C268.301 82.3116 267.763 82.1345 267.369 81.5681C266.544 80.3291 267.261 79.975 271.384 79.444C273.535 79.1608 275.686 78.8422 276.188 78.7714C276.69 78.6652 277.299 78.7006 277.515 78.8068Z" fill="#D53232"/>
<path d="M237.972 83.0904C238.546 88.8255 241.629 91.693 249.229 93.4631C252.025 94.1358 253.029 94.2066 258.98 93.9942C268.516 93.7109 278.088 92.3303 284.254 90.3478C285.222 90.0291 287.445 89.1795 289.13 88.4361C292.787 86.8076 293.683 86.8784 295.906 88.7193C298.953 91.3036 299.67 94.596 297.913 97.9592L296.945 99.8355L297.555 102.03C298.559 105.641 298.559 106.385 297.734 107.199C296.587 108.332 293.862 108.049 292.966 106.739C292.823 106.526 292.679 105.004 292.679 103.34C292.679 101.004 292.536 100.083 291.962 99.1982C290.922 97.4989 290.134 97.2157 288.09 97.7822C287.122 98.0654 286.119 98.1716 285.688 97.9946C284.505 97.5343 282.856 97.6405 282.032 98.207C281.53 98.561 280.956 99.6939 280.454 101.322C279.881 103.234 279.379 104.19 278.375 105.11C274.969 108.332 268.66 107.907 265.612 104.225C264.931 103.376 263.677 102.349 262.816 101.96C261.418 101.287 261.024 101.252 259.339 101.606C257.546 101.995 255.933 101.924 254.642 101.393C254.176 101.216 253.818 101.535 253.208 102.597C251.774 105.146 248.906 105.004 247.544 102.314C246.433 100.225 245.393 99.5877 242.525 99.3044C240.518 99.092 239.729 98.8442 238.474 97.9238C237.65 97.2865 235.965 96.2953 234.782 95.7288C232.021 94.3482 231.197 93.0383 231.232 89.9937C231.268 87.02 232.415 84.7897 234.782 83.232C235.785 82.5948 236.717 81.7451 236.897 81.3557C237.47 80.1874 237.721 80.6122 237.972 83.0904ZM235.463 85.5331C234.71 86.5244 234.853 88.6131 235.75 89.7105C236.467 90.631 238.797 91.87 239.155 91.516C239.227 91.4452 238.725 90.5248 238.044 89.5335C237.112 88.1882 236.753 87.3032 236.753 86.312C236.753 84.8251 236.251 84.5419 235.463 85.5331ZM293.719 98.8088C293.934 99.4106 294.113 100.827 294.113 101.924C294.113 104.261 294.794 105.287 295.726 104.367C296.192 103.907 296.157 103.553 295.511 101.57C294.507 98.4194 293.683 96.6847 293.504 97.2511C293.396 97.4989 293.504 98.207 293.719 98.8088ZM270.488 98.3132C269.018 99.0212 268.767 99.5168 269.556 100.296C270.309 101.039 272.998 101.039 274.575 100.296C276.045 99.6231 277.049 98.561 276.726 98.0654C276.332 97.4281 271.85 97.6051 270.488 98.3132ZM277.622 99.8709C277.622 100.721 278.626 100.614 279.2 99.6939C279.486 99.1982 279.486 98.9858 279.056 98.738C278.411 98.3486 277.622 98.9504 277.622 99.8709ZM248.942 101.181C248.942 102.172 249.874 102.845 250.556 102.278C251.308 101.676 251.237 101.252 250.269 100.862C249.086 100.402 248.942 100.437 248.942 101.181ZM267.297 103.588C267.477 104.473 269.233 105.394 269.735 104.898C270.022 104.615 269.807 104.296 268.947 103.765C267.513 102.845 267.154 102.809 267.297 103.588Z" fill="#D53232"/>
<path d="M249.91 86.3827C249.695 88.0112 249.516 88.2944 248.978 87.9404C248.19 87.4802 248.835 84.9312 249.731 84.9312C249.982 84.9312 250.054 85.4623 249.91 86.3827Z" fill="#D53232"/>
<path d="M270.452 85.7101C270.416 86.843 268.588 88.1174 266.939 88.1174C265.576 88.1174 263.64 86.9492 263.64 86.0995C263.64 85.8163 263.748 85.6393 263.891 85.7101C264.071 85.7809 264.752 86.1349 265.469 86.4889C266.974 87.2324 268.301 87.0554 269.376 85.9933C270.201 85.1791 270.452 85.1083 270.452 85.7101Z" fill="#D53232"/>
<path d="M245.25 88.5422C249.48 90.5956 249.121 91.7284 244.819 89.8875C243.278 89.2503 241.987 88.0112 242.166 87.4448C242.238 87.2678 243.636 87.7634 245.25 88.5422Z" fill="#D53232"/>
<path d="M284.075 99.7647C284.075 100.508 283.25 101.358 282.892 100.968C282.426 100.544 282.641 99.5169 283.215 99.3045C284.039 98.9858 284.075 99.0212 284.075 99.7647Z" fill="#D53232"/>
<path d="M236.466 102.526C237.291 103.482 237.9 104.792 237.649 105.04C237.327 105.394 236.287 104.615 235.677 103.588C234.996 102.384 235.606 101.57 236.466 102.526Z" fill="#D53232"/>
<path d="M153.151 102.455C155.589 103.482 157.023 106.208 156.091 107.943C155.697 108.686 155.661 108.651 154.944 107.234C153.151 103.694 148.455 104.013 147.057 107.766C146.555 109.252 146.161 109.323 145.695 108.084C144.978 106.279 146.053 104.119 148.383 102.809C150.068 101.818 151.431 101.712 153.151 102.455Z" fill="#D53232"/>
<path d="M288.019 104.721C288.019 104.898 287.839 105.181 287.66 105.287C287.445 105.394 287.302 105.358 287.302 105.146C287.302 104.969 287.445 104.686 287.66 104.579C287.839 104.473 288.019 104.509 288.019 104.721Z" fill="#D53232"/>
<path d="M127.59 107.093C129.239 107.943 129.885 108.651 130.351 110.138C130.673 111.2 130.673 111.589 130.315 111.943C129.956 112.262 129.777 112.226 129.49 111.695C128.307 109.606 126.013 108.686 124.077 109.5C122.464 110.173 121.639 111.2 121.424 112.863C121.317 113.678 121.102 114.315 120.994 114.315C120.313 114.315 119.883 113.288 119.883 111.801C119.883 107.978 124.185 105.323 127.59 107.093Z" fill="#D53232"/>
<path d="M294.902 114.138C296.515 116.368 296.909 117.643 296.945 120.404C296.981 122.564 296.873 122.918 295.941 123.944C295.045 124.935 294.651 125.112 293.36 125.077C292.177 125.042 291.639 124.794 290.994 124.086C289.919 122.811 289.954 122.032 291.281 119.271C291.962 117.926 292.5 116.12 292.643 114.881C292.751 113.713 293.038 112.722 293.288 112.651C293.539 112.545 294.256 113.217 294.902 114.138Z" fill="#D53232"/>
<path d="M126.192 123.449C126.587 124.369 126.909 125.219 126.981 125.36C127.053 125.537 126.766 125.644 126.371 125.644C125.511 125.644 124.902 124.652 124.902 123.201C124.902 121.537 125.475 121.608 126.192 123.449Z" fill="#D53232"/>
<path d="M122.141 123.059C122.285 123.165 122.392 123.626 122.392 124.015C122.392 124.44 122.643 125.148 122.966 125.573C123.719 126.67 123.468 127.13 122.392 126.599C121.711 126.245 121.46 125.821 121.388 124.794C121.281 123.449 121.675 122.564 122.141 123.059Z" fill="#D53232"/>
<path d="M242.023 125.36C243.063 125.856 243.385 126.883 242.848 128.122C241.987 130.21 238.546 129.679 238.546 127.449C238.546 125.785 240.482 124.652 242.023 125.36Z" fill="#D53232"/>
<path d="M91.3102 131.626C92.0272 132.83 93.9989 133.821 96.1141 134.069C97.9424 134.282 98.1934 135.096 96.7235 136.229C95.5763 137.114 93.1027 137.22 91.5612 136.441C89.2668 135.273 88.263 132.476 89.697 131.202C90.5574 130.423 90.5932 130.423 91.3102 131.626Z" fill="#D53232"/>
<path d="M244.138 136.406C244.461 137.184 243.995 137.68 242.991 137.68C242.238 137.68 242.095 137.538 242.203 136.866C242.346 135.945 243.816 135.556 244.138 136.406Z" fill="#D53232"/>
</svg>
